<svg xmlns="http://www.w3.org/2000/svg" viewBox="0 0 200 200" width="200" height="200"><defs><linearGradient id="aqua-ink-top" x1="0" y1="0" x2="0" y2="1"><stop offset="0%" stop-color="#48d8e8"></stop><stop offset="100%" stop-color="#108ca8"></stop></linearGradient><linearGradient id="aqua-ink-tr" x1="0" y1="0" x2="0" y2="1"><stop offset="0%" stop-color="#108ca8"></stop><stop offset="100%" stop-color="#0a3a5e"></stop></linearGradient><linearGradient id="aqua-ink-br" x1="0" y1="0" x2="0" y2="1"><stop offset="0%" stop-color="#0a3a5e"></stop><stop offset="100%" stop-color="#020a14"></stop></linearGradient><linearGradient id="aqua-ink-bl" x1="0" y1="0" x2="0" y2="1"><stop offset="0%" stop-color="#020a14"></stop><stop offset="100%" stop-color="#0a3a5e"></stop></linearGradient><linearGradient id="aqua-ink-l" x1="0" y1="0" x2="0" y2="1"><stop offset="0%" stop-color="#108ca8"></stop><stop offset="100%" stop-color="#0a3a5e"></stop></linearGradient><linearGradient id="aqua-ink-spark" x1="0" y1="0" x2="0" y2="1"><stop offset="0%" stop-color="#e8fcff"></stop><stop offset="100%" stop-color="#90e8f0"></stop></linearGradient></defs><g transform="translate(0 0) scale(1)"><polygon points="100,20 170,60 92,92" fill="url(#aqua-ink-top)"></polygon><polygon points="170,60 170,140 92,92" fill="url(#aqua-ink-tr)"></polygon><polygon points="170,140 100,180 92,92" fill="url(#aqua-ink-br)"></polygon><polygon points="100,180 30,140 92,92" fill="url(#aqua-ink-bl)"></polygon><polygon points="30,140 30,60 92,92" fill="url(#aqua-ink-l)"></polygon><polygon points="30,60 100,20 92,92" fill="url(#aqua-ink-spark)"></polygon><line x1="100" y1="20" x2="92" y2="92" stroke="#000814" stroke-width="1.5" fill="none"></line><line x1="170" y1="60" x2="92" y2="92" stroke="#000814" stroke-width="1.5" fill="none"></line><line x1="170" y1="140" x2="92" y2="92" stroke="#000814" stroke-width="1.5" fill="none"></line><line x1="100" y1="180" x2="92" y2="92" stroke="#000814" stroke-width="1.5" fill="none"></line><line x1="30" y1="140" x2="92" y2="92" stroke="#000814" stroke-width="1.5" fill="none"></line><line x1="30" y1="60" x2="92" y2="92" stroke="#000814" stroke-width="1.5" fill="none"></line><polygon points="100,20 170,60 170,140 100,180 30,140 30,60" fill="none" stroke="#000814" stroke-width="2" stroke-linejoin="miter"></polygon></g></svg>